#!OML:ASF F:\VICON\USERDATA\INSTALL\rory3\rory3.ASF
:FULLY-SPECIFIED
:DEGREES
589
root 0.901461 17.8179 43.7545 -4.61489 -2.90865 1.46236
lowerback 9.98371 0.127723 -1.64284
upperback 0.914938 0.015015 0.573348
thorax -4.64732 0.0441136 1.52062
lowerneck -16.1826 -2.80232 -3.15979
upperneck 21.5989 -3.60838 2.16604
head 9.60247 -1.69513 0.809224
rclavicle 1.17904e-014 6.75868e-015
rhumerus -31.0218 -16.1763 -81.4162
rradius 29.1126
rwrist 3.94161
rhand -16.3864 22.4786
rfingers 7.12502
rthumb 9.82736 -7.27206
lclavicle 1.17904e-014 6.75868e-015
lhumerus -26.965 1.81483 80.5378
lradius 23.1037
lwrist 5.84838
lhand -27.6262 21.2081
lfingers 7.12502
lthumb -1.02494 51.1854
rfemur -23.6836 -1.55916 20.499
rtibia 69.724
rfoot -7.16984 -8.48025
rtoes 9.90519
lfemur -3.61002 0.512979 -25.6385
ltibia 27.6649
lfoot -15.4519 -1.83684
ltoes 0.548726
590
root 0.904568 17.8044 43.916 -4.5311 -2.86264 1.51965
lowerback 10.7179 0.0753438 -1.74184
upperback 0.553032 -0.0794436 0.579346
thorax -5.43372 0.0105472 1.60035
lowerneck -16.2881 -2.72814 -3.1952
upperneck 21.7911 -3.53108 2.30366
head 9.69094 -1.64534 0.871705
rclavicle -1.35236e-014 -1.19271e-014
rhumerus -31.2123 -16.9578 -80.9326
rradius 27.7541
rwrist 4.96908
rhand -16.4834 23.7048
rfingers 7.12502
rthumb 9.73377 -6.05023
lclavicle -1.35236e-014 -1.19271e-014
lhumerus -26.8654 0.79865 80.7607
lradius 23.5791
lwrist 8.29071
lhand -28.4143 20.9336
lfingers 7.12502
lthumb -1.78608 50.9058
rfemur -24.6721 -1.55607 20.5277
rtibia 68.4603
rfoot -8.03631 -8.35953
rtoes 9.36914
lfemur -3.21614 0.475991 -25.7462
ltibia 28.0205
lfoot -15.3223 -1.91066
ltoes 4.16184
591
root 0.909335 17.8018 44.119 -4.60782 -2.57598 1.99693
lowerback 11.0705 -0.0272223 -2.21561
upperback 0.00357536 -0.291908 0.478349
thorax -6.20136 -0.0682051 1.79995
lowerneck -15.2708 -2.8478 -3.58176
upperneck 21.9768 -3.70497 2.57492
head 9.58501 -1.73756 1.01902
rclavicle 3.21472e-016 5.56597e-015
rhumerus -32.5015 -16.9356 -80.4535
rradius 27.4785
rwrist 4.94647
rhand -16.2986 23.1696
rfingers 7.12502
rthumb 9.91204 -6.57701
lclavicle 3.21472e-016 5.56597e-015
lhumerus -27.801 -0.0961126 80.997
lradius 24.2474
lwrist 8.76752
lhand -29.7532 18.7843
lfingers 7.12502
lthumb -3.07912 48.7418
rfemur -25.1292 -1.99904 19.9422
rtibia 67.014
rfoot -9.1292 -8.04834
rtoes 8.16922
lfemur -2.16599 0.555637 -26.332
ltibia 27.6747
lfoot -15.9619 -2.13497
ltoes 5.77987
592
root 0.903981 17.7958 44.2925 -4.47545 -2.42671 2.32811
lowerback 9.98236 -0.122393 -2.67626
upperback 0.816537 -0.441136 0.40857
thorax -4.72556 -0.160327 1.99497
lowerneck -15.8411 -2.48961 -3.09729
upperneck 21.2355 -3.22457 2.30701
head 9.4011 -1.49953 0.901686
rclavicle 1.50704e-014 1.11319e-014
rhumerus -31.2933 -17.1595 -80.94
rradius 27.4803
rwrist 4.69997
rhand -15.895 21.9357
rfingers 7.12502
rthumb 10.3014 -7.79203
lclavicle 1.50704e-014 1.11319e-014
lhumerus -26.0561 0.53545 80.6328
lradius 24.5183
lwrist 6.63059
lhand -30.5051 15.6615
lfingers 7.12502
lthumb -3.80523 45.6072
rfemur -26.0111 -2.09303 19.6417
rtibia 65.4596
rfoot -9.85613 -7.99058
rtoes 7.95151
lfemur -1.59755 0.622528 -26.7089
ltibia 27.4046
lfoot -16.3116 -2.23696
ltoes 7.37693
593
root 0.899097 17.7838 44.4422 -4.24745 -2.358 2.45228
lowerback 10.4687 -0.218303 -3.00198
upperback 0.553317 -0.621777 0.456421
thorax -5.26033 -0.229841 2.26187
lowerneck -16.8637 -2.95903 -3.60783
upperneck 22.3726 -3.78195 2.47723
head 10.0265 -1.77009 0.959965
rclavicle -7.60351e-015 -5.1684e-015
rhumerus -31.5234 -17.1956 -80.7588
rradius 26.943
rwrist 5.17737
rhand -16.0857 22.5559
rfingers 7.12502
rthumb 10.1174 -7.18083
lclavicle -7.60351e-015 -5.1684e-015
lhumerus -25.8187 1.01813 80.2343
lradius 25.0048
lwrist 6.10369
lhand -28.3874 18.8111
lfingers 7.12502
lthumb -1.76006 48.7836
rfemur -27.0529 -1.93437 19.6443
rtibia 63.7288
rfoot -10.3517 -8.27838
rtoes 7.67539
lfemur -1.22113 0.565948 -26.8747
ltibia 27.1171
lfoot -16.388 -2.11231
ltoes 7.71585
594
root 0.911139 17.769 44.5972 -4.15912 -1.9918 3.01621
lowerback 10.8698 -0.350966 -3.43786
upperback 0.387779 -0.876036 0.310716
thorax -5.64036 -0.336443 2.40058
lowerneck -16.5278 -2.74213 -3.52865
upperneck 21.779 -3.51108 2.53854
head 9.74224 -1.63513 1.00892
rclavicle -1.10325e-014 -7.15625e-015
rhumerus -31.9504 -17.306 -80.5044
rradius 26.9394
rwrist 5.57456
rhand -16.234 23.2915
rfingers 7.12502
rthumb 9.97436 -6.45221
lclavicle -1.10325e-014 -7.15625e-015
lhumerus -25.4704 0.542904 80.2402
lradius 25.5323
lwrist 7.01511
lhand -28.344 19.6651
lfingers 7.12502
lthumb -1.71819 49.638
rfemur -27.734 -2.41128 18.9954
rtibia 61.8548
rfoot -11.0878 -8.36061
rtoes 5.88813
lfemur -0.529982 0.455299 -27.6412
ltibia 26.6369
lfoot -16.5843 -1.64406
ltoes 5.00162
